<svg width="1008" height="1008" viewBox="0 0 1008 1008" fill="none" xmlns="http://www.w3.org/2000/svg">
<rect x="112" y="280" width="392" height="448" fill="#183153"/>
<path d="M924 112H84C37.625 112 0 149.625 0 196V812C0 858.375 37.625 896 84 896H924C970.375 896 1008 858.375 1008 812V196C1008 149.625 970.375 112 924 112ZM308 280C369.775 280 420 330.225 420 392C420 453.775 369.775 504 308 504C246.225 504 196 453.775 196 392C196 330.225 246.225 280 308 280ZM504 694.4C504 712.95 486.5 728 464.8 728H151.2C129.5 728 112 712.95 112 694.4V660.8C112 605.15 164.675 560 229.6 560H238.35C259.875 568.925 283.325 574 308 574C332.675 574 356.3 568.925 377.65 560H386.4C451.325 560 504 605.15 504 660.8V694.4ZM896 602C896 609.7 889.7 616 882 616H630C622.3 616 616 609.7 616 602V574C616 566.3 622.3 560 630 560H882C889.7 560 896 566.3 896 574V602ZM896 490C896 497.7 889.7 504 882 504H630C622.3 504 616 497.7 616 490V462C616 454.3 622.3 448 630 448H882C889.7 448 896 454.3 896 462V490ZM896 378C896 385.7 889.7 392 882 392H630C622.3 392 616 385.7 616 378V350C616 342.3 622.3 336 630 336H882C889.7 336 896 342.3 896 350V378Z" fill="#ACB4BE"/>
</svg>
